<!DOCTYPE svg PUBLIC "-//W3C//DTD SVG 1.1//EN" "http://www.w3.org/Graphics/SVG/1.1/DTD/svg11.dtd">
<!-- Uploaded to: SVG Repo, www.svgrepo.com, Transformed by: SVG Repo Mixer Tools -->
<svg fill="#321e1e" height="800px" width="800px" version="1.1" id="Layer_1" xmlns="http://www.w3.org/2000/svg" xmlns:xlink="http://www.w3.org/1999/xlink" viewBox="0 0 512 512" xml:space="preserve">
<g id="SVGRepo_bgCarrier" stroke-width="0"/>
<g id="SVGRepo_tracerCarrier" stroke-linecap="round" stroke-linejoin="round"/>
<g id="SVGRepo_iconCarrier"> <g> <g> <path d="M411.132,255.997c0-118.171-61.112-220.822-152.068-255.435c-1.97-0.749-4.158-0.749-6.127,0 C161.98,35.174,100.868,137.826,100.868,255.997c0,2.492,0.067,4.967,0.12,7.444c-0.126,0.919-0.126,1.849,0.044,2.766 c3.409,113.839,63.578,211.618,151.904,245.229c0.985,0.374,2.028,0.564,3.064,0.564s2.079-0.189,3.064-0.564 c88.326-33.611,148.496-131.39,151.904-245.229c0.173-0.916,0.17-1.846,0.044-2.766 C411.067,260.964,411.132,258.489,411.132,255.997z M246.304,490.337c-66.793-32.275-118.062-111.265-127.579-202.251 l127.579,135.083V490.337z M246.304,398.069L117.652,261.284c-0.029-1.762,0.452-3.519,0.452-5.288 c0-15.029,0.596-29.838,2.7-44.31l125.5,133.916V398.069z M246.304,320.45L124.363,190.596 c4.499-20.593,11.318-40.283,19.682-58.615l102.26,118.613V320.45z M246.304,224.275l-94.199-109.002 c7.358-13.566,16.025-26.217,25.333-37.758l68.865,61.694V224.275z M246.304,116.147l-58.088-51.633 c17.062-18.135,38.697-32.774,58.088-42.854V116.147z M263.541,21.661c21.546,10.08,41.026,24.718,58.086,42.854l-58.086,51.633 V21.661z M263.541,139.208l69.673-61.694c9.309,11.541,17.975,24.192,25.333,37.758l-95.007,109.002V139.208z M263.541,250.594 L366.609,131.98c8.366,18.332,15.183,38.022,19.682,58.615L263.541,320.45V250.594z M263.541,490.337v-67.169L391.12,288.086 C381.601,379.072,332.489,458.062,263.541,490.337z M393.136,261.284L263.541,398.069v-52.465l126.577-133.916 c2.104,14.471,3.508,29.281,3.508,44.31C393.626,257.765,393.165,259.522,393.136,261.284z"/> </g> </g> </g>
</svg>